<svg width="960" height="720" viewBox="0 0 960 720" fill="none" xmlns="http://www.w3.org/2000/svg">
  <rect width="960" height="720" rx="48" fill="#F7F7F7"/>
  <rect x="72" y="92" width="816" height="536" rx="36" fill="white" stroke="#D9D9D9" stroke-width="2"/>
  <rect x="116" y="138" width="252" height="444" rx="28" fill="#111111"/>
  <rect x="146" y="174" width="120" height="14" rx="7" fill="#FBFBFB"/>
  <rect x="146" y="202" width="82" height="8" rx="4" fill="#9D9D9D"/>
  <rect x="146" y="258" width="192" height="56" rx="18" fill="#1F1F1F" stroke="#353535"/>
  <rect x="146" y="332" width="192" height="56" rx="18" fill="#1F1F1F" stroke="#353535"/>
  <rect x="146" y="406" width="192" height="56" rx="18" fill="#1F1F1F" stroke="#353535"/>
  <rect x="146" y="488" width="122" height="10" rx="5" fill="#7E7E7E"/>
  <rect x="416" y="138" width="428" height="132" rx="28" fill="#FBFBFB" stroke="#D9D9D9" stroke-width="2"/>
  <rect x="448" y="172" width="152" height="14" rx="7" fill="#111111"/>
  <rect x="448" y="200" width="96" height="8" rx="4" fill="#9D9D9D"/>
  <rect x="448" y="226" width="364" height="14" rx="7" fill="#E8E8E8"/>
  <rect x="448" y="248" width="320" height="14" rx="7" fill="#EFEFEF"/>
  <rect x="416" y="300" width="266" height="282" rx="28" fill="#111111"/>
  <rect x="712" y="300" width="132" height="282" rx="28" fill="#FBFBFB" stroke="#D9D9D9" stroke-width="2"/>
  <path d="M742 360H814" stroke="#111111" stroke-width="10" stroke-linecap="round"/>
  <path d="M742 402H814" stroke="#C4C4C4" stroke-width="10" stroke-linecap="round"/>
  <path d="M742 444H814" stroke="#E0E0E0" stroke-width="10" stroke-linecap="round"/>
  <path d="M742 486H814" stroke="#111111" stroke-width="10" stroke-linecap="round"/>
  <path d="M742 528H784" stroke="#C4C4C4" stroke-width="10" stroke-linecap="round"/>
  <circle cx="548" cy="394" r="54" fill="#FAFAFA"/>
  <rect x="496" y="474" width="104" height="14" rx="7" fill="#FAFAFA"/>
  <rect x="510" y="504" width="76" height="10" rx="5" fill="#9D9D9D"/>
  <path d="M492 394H604" stroke="#111111" stroke-width="12" stroke-linecap="round"/>
  <path d="M548 338L548 450" stroke="#111111" stroke-width="12" stroke-linecap="round"/>
  <circle cx="548" cy="394" r="16" fill="#111111"/>
</svg>
